:FULLY-SPECIFIED
:DEGREES
1439
root 3.38653 16.4039 -3.94125 202.46 -95.9672 -195.972
lowerback 1.66893 1.50098 4.37519
upperback 0.680801 2.04829 1.50496
thorax -0.137502 1.01863 -0.939895
lowerneck -18.7258 0.024003 0.728546
upperneck 20.0174 -0.144687 -0.543051
head 9.40809 -0.10939 -0.333922
rclavicle 1.11319e-014 9.93923e-015
rhumerus -26.1266 1.25867 -84.3795
rradius 24.451
rwrist 25.6238
rhand -26.5702 1.83081
rfingers 7.12502
rthumb -0.00501357 -28.1489
lclavicle 1.11319e-014 9.93923e-015
lhumerus -28.2297 4.48189 89.6395
lradius 22.0095
lwrist -14.3916
lhand -26.405 1.60062
lfingers 7.12502
lthumb 0.154549 31.5803
rfemur -1.70805 12.3524 31.2886
rtibia 11.2497
rfoot -14.4769 -19.2657
rtoes -2.99254
lfemur -34.9838 -5.85012 -19.1946
ltibia 33.9739
lfoot -11.4557 5.74792
ltoes -19.308
1440
root 3.39281 16.4087 -3.94232 202.809 -96.0213 -196.176
lowerback 1.54246 1.49463 4.41341
upperback 0.649753 2.03385 1.5386
thorax -0.0990722 1.0116 -0.92334
lowerneck -18.7685 0.0657848 0.796105
upperneck 19.9551 -0.0963206 -0.579323
head 9.39439 -0.0851735 -0.350917
rclavicle 1.59028e-014 -6.36111e-015
rhumerus -26.0583 1.54776 -84.4372
rradius 24.5089
rwrist 25.1482
rhand -26.6206 1.81202
rfingers 7.12502
rthumb -0.0536567 -28.1677
lclavicle 1.59028e-014 -6.36111e-015
lhumerus -28.2184 4.51171 89.6812
lradius 21.97
lwrist -14.4841
lhand -26.38 1.51328
lfingers 7.12502
lthumb 0.178744 31.4929
rfemur -0.446798 11.9563 31.4477
rtibia 9.25121
rfoot -13.6809 -18.7582
rtoes -2.46541
lfemur -35.228 -6.42677 -19.0216
ltibia 32.1495
lfoot -10.5664 6.25962
ltoes -18.3297
1441
root 3.3988 16.412 -3.94355 203.956 -96.135 -197.222
lowerback 1.46703 1.4761 4.53341
upperback 0.610626 2.00671 1.60613
thorax -0.0964727 0.997134 -0.919123
lowerneck -18.7865 0.128725 1.01852
upperneck 19.9187 -0.0236772 -0.79012
head 9.38542 -0.0581726 -0.450743
rclavicle 1.27222e-014 1.74931e-014
rhumerus -26.0925 1.75016 -84.4392
rradius 24.6528
rwrist 25.1086
rhand -26.6543 1.70412
rfingers 7.12502
rthumb -0.0861982 -28.2756
lclavicle 1.27222e-014 1.74931e-014
lhumerus -28.2234 4.38454 89.7894
lradius 21.9286
lwrist -14.2139
lhand -26.3437 1.53711
lfingers 7.12502
lthumb 0.213794 31.5167
rfemur 0.925663 11.5279 31.7011
rtibia 7.07784
rfoot -12.9853 -18.4278
rtoes -2.69279
lfemur -35.4847 -6.88437 -18.8007
ltibia 30.5406
lfoot -9.65114 6.65511
ltoes -17.9078
1442
root 3.40399 16.4116 -3.94385 204.302 -96.2154 -197.491
lowerback 1.40806 1.46891 4.59271
upperback 0.593338 1.9945 1.63209
thorax -0.0806163 0.990949 -0.923981
lowerneck -18.8147 0.163415 1.15166
upperneck 19.8562 0.00603514 -0.872285
head 9.36903 -0.0429911 -0.496909
rclavicle -3.02153e-014 -1.51076e-014
rhumerus -26.0237 1.78787 -84.4083
rradius 24.5504
rwrist 25.0422
rhand -26.7494 1.8506
rfingers 7.12502
rthumb -0.178084 -28.1291
lclavicle -3.02153e-014 -1.51076e-014
lhumerus -28.1617 4.26035 89.8883
lradius 21.8287
lwrist -13.9241
lhand -26.2839 1.51672
lfingers 7.12502
lthumb 0.27154 31.4963
rfemur 2.67956 11.0908 31.8315
rtibia 4.18009
rfoot -11.7216 -18.0538
rtoes -3.07225
lfemur -35.7158 -7.26205 -18.7278
ltibia 29.1937
lfoot -9.04607 6.84912
ltoes -16.9684
1443
root 3.4095 16.4079 -3.9439 204.315 -96.2979 -197.432
lowerback 1.34772 1.46078 4.57882
upperback 0.578722 1.97998 1.67203
thorax -0.0644216 0.983534 -0.873718
lowerneck -18.781 0.189964 1.22526
upperneck 19.7483 0.0280921 -0.892684
head 9.32554 -0.0287853 -0.512592
rclavicle -7.95139e-015 -1.59028e-014
rhumerus -26.0033 1.7742 -84.308
rradius 24.5694
rwrist 25.2991
rhand -26.9666 1.79475
rfingers 7.12502
rthumb -0.38787 -28.1846
lclavicle -7.95139e-015 -1.59028e-014
lhumerus -28.1189 4.35762 89.8961
lradius 21.6443
lwrist -14.5627
lhand -25.9863 1.53263
lfingers 7.12502
lthumb 0.558949 31.5116
rfemur 5.06181 10.6336 31.8835
rtibia 6.36111e-015
rfoot -9.83338 -17.5459
rtoes -3.12372
lfemur -35.9281 -7.56754 -18.7624
ltibia 28.0942
lfoot -8.6391 7.02904
ltoes -16.7033
